<?xml version="1.0" encoding="UTF-8" standalone="no"?><!-- Generator: Gravit.io --><svg xmlns="http://www.w3.org/2000/svg" xmlns:xlink="http://www.w3.org/1999/xlink" style="isolation:isolate" viewBox="0 0 83 107.007" width="83pt" height="107.007pt"><defs><clipPath id="_clipPath_ghVt4nmgIGRPRDeVuoTyHupm6bKEbowV"><rect width="83" height="107.007"/></clipPath></defs><g clip-path="url(#_clipPath_ghVt4nmgIGRPRDeVuoTyHupm6bKEbowV)"><g><ellipse vector-effect="non-scaling-stroke" cx="41.510718687162935" cy="31.9903849455719" rx="30.213141337484615" ry="31.9903849455719" fill="rgb(93,93,93)"/><ellipse vector-effect="non-scaling-stroke" cx="41.510718687162935" cy="31.84315967095138" rx="20.29647467081793" ry="22.156840329048613" fill="rgb(255,255,255)"/><rect x="1.381" y="32.755" width="80.238" height="21.793" transform="matrix(1,0,0,1,0,0)" fill="rgb(255,255,255)"/><rect x="11.287" y="31.177" width="9.906" height="19.409" transform="matrix(1,0,0,1,0,0)" fill="rgb(93,93,93)"/><rect x="61.807" y="31.177" width="9.906" height="19.409" transform="matrix(1,0,0,1,0,0)" fill="rgb(93,93,93)"/><path d="M 3.796 50.026 L 79.204 50.026 C 81.299 50.026 83 51.727 83 53.823 L 83 103.211 C 83 105.306 81.299 107.007 79.204 107.007 L 3.796 107.007 C 1.701 107.007 0 105.306 0 103.211 L 0 53.823 C 0 51.727 1.701 50.026 3.796 50.026 Z" style="stroke:none;fill:#FF6C6C;stroke-miterlimit:10;"/></g></g></svg>